<?xml version="1.0" encoding="UTF-8" standalone="no"?>
<!-- Created with Inkscape (http://www.inkscape.org/) -->

<svg
   width="55.41304mm"
   height="63.897282mm"
   viewBox="0 0 55.41304 63.897282"
   version="1.1"
   id="svg1"
   xml:space="preserve"
   xmlns="http://www.w3.org/2000/svg"
   xmlns:svg="http://www.w3.org/2000/svg"><defs
     id="defs1" /><g
     id="layer1"
     transform="translate(-66.810722,-142.82199)"><path
       style="fill:#ff6600"
       d="m 82.286564,199.6594 c -6.765463,-3.88293 -13.015217,-7.47835 -13.888342,-7.98982 l -1.5875,-0.92994 v -16.12229 -16.1223 l 13.229167,-7.59233 c 7.276042,-4.17578 13.526823,-7.7659 13.890626,-7.97805 0.639169,-0.37272 1.126943,-0.11688 14.475345,7.59234 l 13.8139,7.97804 0.002,16.13959 0.002,16.13958 -12.60477,7.27604 c -6.93262,4.00182 -13.150686,7.58946 -13.817917,7.97253 l -1.213148,0.69648 z m 22.231346,-8.02199 9.78552,-5.6191 v -2.4286 -2.4286 l -3.10885,-1.77748 c -1.70987,-0.97761 -9.64097,-5.5263 -17.624661,-10.10819 l -14.515805,-8.33071 -1.094612,0.60761 c -0.602037,0.33418 -1.541097,0.88583 -2.0868,1.22588 l -0.992188,0.61826 v 2.24321 c 0,2.24107 8.18e-4,2.24373 0.859896,2.79572 0.472943,0.30389 6.455833,3.78926 13.295313,7.74527 6.839479,3.95602 12.403987,7.31012 12.365577,7.45356 -0.0588,0.21946 -5.666913,3.63617 -6.576871,4.0069 -0.163191,0.0665 -4.655554,-2.3863 -9.983028,-5.45062 -5.327475,-3.06433 -9.750843,-5.57151 -9.829708,-5.57151 -0.07886,0 -0.110876,2.10671 -0.07114,4.68157 l 0.07225,4.68156 9.657292,5.62305 c 5.31151,3.09267 9.748417,5.6294 9.859793,5.63718 0.111376,0.008 4.60599,-2.51445 9.988022,-5.60496 z m 9.78552,-23.68693 v -4.69979 l -9.79193,-5.61896 c -5.385559,-3.09043 -9.880173,-5.61234 -9.988022,-5.60425 -0.399896,0.03 -7.566933,4.36099 -7.653274,4.62479 -0.08869,0.27097 26.464776,15.91818 27.102496,15.97074 0.2532,0.0209 0.33073,-1.07456 0.33073,-4.67253 z"
       id="path1" /></g></svg>
